<?xml version="1.0" encoding="UTF-8" standalone="no"?>
<svg
   xmlns:dc="http://purl.org/dc/elements/1.1/"
   xmlns:cc="http://creativecommons.org/ns#"
   xmlns:rdf="http://www.w3.org/1999/02/22-rdf-syntax-ns#"
   xmlns:svg="http://www.w3.org/2000/svg"
   xmlns="http://www.w3.org/2000/svg"
   xmlns:sodipodi="http://sodipodi.sourceforge.net/DTD/sodipodi-0.dtd"
   xmlns:inkscape="http://www.inkscape.org/namespaces/inkscape"
   width="40"
   height="40"
   viewBox="0 0 22 40"
   fill="none"
   version="1.1"
   id="svg919"
   sodipodi:docname="icon-audio.svg"
   inkscape:version="1.0.1 (3bc2e813f5, 2020-09-07)">
  <metadata
     id="metadata923">
    <rdf:RDF>
      <cc:Work
         rdf:about="">
        <dc:format>image/svg+xml</dc:format>
        <dc:type
           rdf:resource="http://purl.org/dc/dcmitype/StillImage" />
        <dc:title></dc:title>
      </cc:Work>
    </rdf:RDF>
  </metadata>
  <sodipodi:namedview
     pagecolor="#ffffff"
     bordercolor="#666666"
     borderopacity="1"
     objecttolerance="10"
     gridtolerance="10"
     guidetolerance="10"
     inkscape:pageopacity="0"
     inkscape:pageshadow="2"
     inkscape:window-width="1920"
     inkscape:window-height="1009"
     id="namedview921"
     showgrid="false"
     inkscape:zoom="11.313709"
     inkscape:cx="22.816629"
     inkscape:cy="31.499273"
     inkscape:window-x="-8"
     inkscape:window-y="-8"
     inkscape:window-maximized="1"
     inkscape:current-layer="svg919" />
  <defs
     id="defs917">
    <linearGradient
       id="paint0_linear"
       x1="2.12767"
       y1="1"
       x2="30.7018"
       y2="17.5237"
       gradientUnits="userSpaceOnUse">
      <stop
         offset="0.259336"
         stop-color="#FFDB6E"
         id="stop907" />
      <stop
         offset="1"
         stop-color="#FFBC5E"
         id="stop909" />
    </linearGradient>
    <linearGradient
       id="paint1_linear"
       x1="1.59976"
       y1="8.08974e-07"
       x2="31.8368"
       y2="17.6727"
       gradientUnits="userSpaceOnUse">
      <stop
         offset="0.259336"
         stop-color="#FFDB6E"
         id="stop912" />
      <stop
         offset="1"
         stop-color="#FFBC5E"
         id="stop914" />
    </linearGradient>
  </defs>
  <path
     style="fill:#fd6700;stroke-width:0.0325865"
     d="m 1.2096381,38.328129 c -0.5394924,-0.07935 -0.9372964,-0.20201 -1.3135693,-0.404984 -1.4045555,-0.757599 -1.8259743,-2.369738 -1.0248098,-3.920809 0.5456565,-1.056508 1.5755886,-1.903895 2.8140596,-2.31526 0.4872274,-0.16183 0.8004699,-0.219209 1.3040192,-0.238856 0.4516317,-0.01762 0.8134059,0.01589 1.1811706,0.109479 0.1050508,0.02674 0.1989888,0.04054 0.2087994,0.03073 0.00955,-0.0098 -0.191262,-1.517368 -0.4468567,-3.350097 C 3.6768564,26.405607 3.3893991,24.341532 3.2936379,23.651514 3.1979636,22.961495 2.9574753,21.23037 2.7593547,19.80457 2.5611472,18.378779 2.3990564,17.142869 2.3990564,17.058107 c 0,-0.247025 0.1177264,-0.470922 0.3298249,-0.627405 0.055564,-0.0408 0.5133599,-0.208365 1.0177774,-0.372279 0.5044176,-0.163905 1.6796845,-0.547454 2.6116849,-0.852327 0.9320005,-0.304873 2.4790255,-0.810732 3.4378535,-1.12413 0.9589139,-0.313408 1.8679939,-0.610997 2.0203609,-0.661326 0.152367,-0.05035 0.892845,-0.29244 1.645652,-0.538033 0.752719,-0.245594 2.043195,-0.668888 2.867626,-0.940648 1.327461,-0.437576 1.523151,-0.49393 1.710766,-0.492601 0.151933,8.68e-4 0.250038,0.02153 0.346841,0.07223 0.176764,0.09261 0.353266,0.302043 0.398846,0.473492 0.01997,0.07545 0.102881,0.621042 0.184056,1.212487 0.08161,0.591444 0.264016,1.911204 0.406226,2.932793 0.142209,1.021589 0.501465,3.602435 0.798386,5.735227 0.296834,2.132792 0.638032,4.567002 0.758102,5.409371 0.204111,1.431869 0.218263,1.568686 0.217047,2.101824 0,0.521781 -0.0087,0.594014 -0.08717,0.849583 -0.495301,1.610429 -2.018538,2.883055 -3.819075,3.19088 -1.778223,0.304004 -3.325335,-0.447934 -3.798672,-1.846316 -0.09672,-0.285765 -0.109999,-0.36852 -0.122675,-0.765239 -0.01042,-0.334869 -6.08e-4,-0.511945 0.0408,-0.716386 0.191609,-0.945596 0.846657,-1.89536 1.76303,-2.556529 0.337031,-0.243127 1.022206,-0.591818 1.399,-0.71188 0.863587,-0.275242 1.760599,-0.317036 2.486144,-0.115851 0.119637,0.03317 0.219478,0.05765 0.221736,0.05444 0,-0.0035 -0.05904,-0.460488 -0.137,-1.016085 -0.07814,-0.555597 -0.177719,-1.274136 -0.22243,-1.596738 -0.04428,-0.32261 -0.19951,-1.437069 -0.344237,-2.476577 -0.144814,-1.039517 -0.335642,-2.410595 -0.424197,-3.046847 -0.08855,-0.636252 -0.197947,-1.420773 -0.24318,-1.743375 -0.04515,-0.32261 -0.08248,-0.598546 -0.08248,-0.613193 -8.6e-5,-0.03368 0.111215,-0.06789 -1.645651,0.505251 -0.824432,0.268948 -1.858271,0.606109 -2.297401,0.749238 -0.439043,0.143139 -1.267555,0.414152 -1.84108,0.602254 -0.573526,0.188102 -1.328763,0.43524 -1.678209,0.549199 -0.3495319,0.113958 -1.4273019,0.466 -2.3951579,0.782307 -2.1125637,0.690445 -2.9752826,0.971738 -3.1934584,1.041271 -0.089597,0.02856 -0.1798887,0.06242 -0.2006384,0.07527 -0.027782,0.0171 0.052091,0.672421 0.299525,2.451 0.5101477,3.671058 0.9658598,6.943234 1.2571371,9.026409 0.2453501,1.754853 0.2610643,1.900595 0.2469128,2.297349 -0.012155,0.32953 -0.033859,0.488773 -0.1010571,0.716907 -0.4557122,1.554231 -1.9644503,2.844698 -3.7340791,3.193683 -0.2655789,0.05235 -1.0832389,0.09135 -1.2871764,0.06138 z M 24.823673,21.988889 c -0.812104,-0.112318 -1.415582,-0.622917 -1.584879,-1.34103 -0.305949,-1.297977 0.872877,-2.890981 2.480328,-3.351816 0.280946,-0.08057 0.755324,-0.140516 0.970548,-0.122675 0.100016,0.0087 0.181886,0.0043 0.181886,-0.0078 0,-0.02127 -1.571335,-4.769776 -3.345912,-10.1113763 -0.403881,-1.2158156 -0.741867,-2.2662456 -0.750983,-2.3342943 -0.02344,-0.1764246 0.03994,-0.3375256 0.1864,-0.469499 0.240922,-0.2176809 0.454844,-0.199857 0.869925,0.072494 0.453889,0.2977626 1.110413,0.6574358 1.884837,1.0326321 1.648343,0.7985338 2.038854,1.0006481 2.410352,1.2475176 0.874006,0.5808529 1.306971,1.067533 1.729953,1.944786 0.231893,0.480785 0.478198,1.188385 0.572831,1.6456159 0.09515,0.459454 0.118855,1.448165 0.04515,1.888215 -0.09316,0.556874 -0.236841,0.881646 -0.390077,0.881646 -0.143164,0 -0.187702,-0.09885 -0.200985,-0.446171 -0.0087,-0.175791 -0.0191,-0.502916 -0.02778,-0.726943 -0.04515,-1.151088 -0.459446,-2.4085289 -1.010051,-3.0651229 -0.566233,-0.675129 -1.668311,-1.260896 -2.722987,-1.447296 -0.340503,-0.06017 -1.336055,-0.1078376 -1.336055,-0.063986 0,0.025786 1.772841,5.3870069 3.151177,9.5295249 l 0.612594,1.841141 -3.47e-4,0.374745 c -3.48e-4,0.299291 -0.01563,0.423954 -0.07553,0.619149 -0.09237,0.298831 -0.310203,0.717653 -0.503983,0.969228 -0.361253,0.468953 -1.004408,0.970861 -1.518028,1.184696 -0.52317,0.217802 -1.170839,0.319962 -1.627767,0.256758 z M -6.3015822,21.546234 c -0.9540526,-0.172813 -1.6683114,-0.616049 -1.9949239,-1.238019 -0.1594863,-0.303649 -0.220954,-0.551769 -0.220954,-0.892298 0,-1.571543 1.8686892,-2.93802 3.8620502,-2.824174 0.3970227,0.02266 0.8645422,0.126842 1.1614627,0.258772 l 0.1843164,0.08196 0.0191,-0.363467 c 0.010418,-0.199909 0.041673,-1.060006 0.068587,-1.911335 0.077269,-2.429834 0.2399674,-7.473645 0.2767786,-8.5865499 0.018232,-0.555609 0.04775,-1.4427762 0.065114,-1.9714943 0.060773,-1.8408811 0.068587,-1.9613249 0.1330934,-2.0895824 0.1700781,-0.3372999 0.5954037,-0.4522133 0.9079516,-0.2453413 0.070323,0.046361 0.1752873,0.1544767 0.2337163,0.240193 0.3780962,0.5547638 1.0593637,1.3277902 2.1544968,2.4446715 0.9369491,0.9555543 1.3609724,1.4317471 1.6901027,1.898112 0.7340535,1.0400465 1.0069251,1.9609605 1.0069251,3.3986545 0,0.8853269 -0.085082,1.4470179 -0.3312139,2.1903619 -0.3014351,0.910026 -0.8509985,1.775966 -1.1270824,1.775966 -0.2149635,0 -0.2252081,-0.196288 -0.037332,-0.71958 0.390598,-1.090063 0.5256881,-1.810356 0.5311577,-2.832353 0,-0.4719819 -0.00955,-0.6665169 -0.0573,-0.8961359 C 2.04171,8.3840531 1.5359901,7.5804921 0.6945418,6.833763 0.1241419,6.3274788 -0.5829109,5.9117467 -1.3205239,5.6488679 l -0.3149788,-0.1122394 -0.018232,0.2672458 c -0.010418,0.1469843 -0.026046,0.5678561 -0.035596,0.9352648 -0.00955,0.3674174 -0.025177,0.865992 -0.034728,1.107948 -0.00955,0.241955 -0.0382,1.13645 -0.065114,1.987778 -0.026914,0.8513199 -0.06251,1.9804429 -0.080742,2.5091609 -0.042541,1.268241 -0.1218069,3.736727 -0.1617436,5.01833 -0.056432,1.805754 -0.068587,1.903911 -0.2823349,2.326189 -0.154798,0.305221 -0.3154997,0.514853 -0.6056484,0.789948 -0.4924365,0.466938 -1.0805475,0.780484 -1.8336142,0.977537 -0.2799908,0.07327 -0.4062255,0.08664 -0.8961443,0.09513 -0.3135897,0.0052 -0.6068638,0.0035 -0.6517491,-0.0052 z"
     id="path2186"
     sodipodi:nodetypes="scsssscsscssssssssssssssscsssscssscssssssssssssssssssscssssssssssssssscssssccssscccsssscsssssscssscssccsscssssssssssc" />
</svg>
