<?xml version="1.0" encoding="UTF-8" standalone="no"?>
<svg
   xmlns:dc="http://purl.org/dc/elements/1.1/"
   xmlns:cc="http://creativecommons.org/ns#"
   xmlns:rdf="http://www.w3.org/1999/02/22-rdf-syntax-ns#"
   xmlns:svg="http://www.w3.org/2000/svg"
   xmlns="http://www.w3.org/2000/svg"
   xmlns:sodipodi="http://sodipodi.sourceforge.net/DTD/sodipodi-0.dtd"
   xmlns:inkscape="http://www.inkscape.org/namespaces/inkscape"
   width="40"
   height="40"
   viewBox="0 0 22 40"
   fill="none"
   version="1.1"
   id="svg919"
   sodipodi:docname="icon-graphic.svg"
   inkscape:version="1.0.1 (3bc2e813f5, 2020-09-07)">
  <metadata
     id="metadata923">
    <rdf:RDF>
      <cc:Work
         rdf:about="">
        <dc:format>image/svg+xml</dc:format>
        <dc:type
           rdf:resource="http://purl.org/dc/dcmitype/StillImage" />
        <dc:title></dc:title>
      </cc:Work>
    </rdf:RDF>
  </metadata>
  <sodipodi:namedview
     pagecolor="#ffffff"
     bordercolor="#666666"
     borderopacity="1"
     objecttolerance="10"
     gridtolerance="10"
     guidetolerance="10"
     inkscape:pageopacity="0"
     inkscape:pageshadow="2"
     inkscape:window-width="1920"
     inkscape:window-height="1009"
     id="namedview921"
     showgrid="false"
     inkscape:zoom="14.80545"
     inkscape:cx="25.044298"
     inkscape:cy="17.223951"
     inkscape:window-x="-8"
     inkscape:window-y="-8"
     inkscape:window-maximized="1"
     inkscape:current-layer="svg919" />
  <defs
     id="defs917">
    <linearGradient
       id="paint0_linear"
       x1="2.12767"
       y1="1"
       x2="30.7018"
       y2="17.5237"
       gradientUnits="userSpaceOnUse">
      <stop
         offset="0.259336"
         stop-color="#FFDB6E"
         id="stop907" />
      <stop
         offset="1"
         stop-color="#FFBC5E"
         id="stop909" />
    </linearGradient>
    <linearGradient
       id="paint1_linear"
       x1="1.59976"
       y1="8.08974e-07"
       x2="31.8368"
       y2="17.6727"
       gradientUnits="userSpaceOnUse">
      <stop
         offset="0.259336"
         stop-color="#FFDB6E"
         id="stop912" />
      <stop
         offset="1"
         stop-color="#FFBC5E"
         id="stop914" />
    </linearGradient>
  </defs>
  <path
     style="fill:#fd6700;stroke-width:0.0720727"
     d="m -3.6311311,38.400027 c -0.2154423,-0.0784 -0.522371,-0.42614 -0.7185853,-0.814151 -0.3333262,-0.659152 -0.704653,-1.728485 -0.8770293,-2.525664 -0.2326569,-1.075948 -0.234531,-3.017783 -0.00375,-4.082566 0.3970711,-1.833535 1.2059059,-3.445166 2.4132843,-4.808557 0.7882736,-0.890137 1.7524255,-1.494827 2.83562889,-1.77842 0.71263126,-0.186577 1.94900361,-0.202421 2.57716311,-0.03304 0.2335722,0.06298 0.4328974,0.105619 0.4429485,0.09474 0.010064,-0.01092 0.1366565,-0.377259 0.2813399,-0.814182 0.1446772,-0.436932 0.4536996,-1.182885 0.6867093,-1.657677 L 4.4302305,21.117259 -0.92409597,15.747845 C -3.8689672,12.794673 -6.3832742,10.221938 -6.5114387,10.03066 -7.1229668,9.1179909 -7.4507937,8.0446136 -7.4507937,6.9549853 c 0,-0.8627115 0.1584704,-1.5487093 0.5411057,-2.3423646 0.9142539,-1.8963318 2.7671184,-3.0630856 4.8643446,-3.0630856 1.15736788,0 2.2499628,0.3548932 3.1957219,1.038027 0.2441694,0.1763704 2.5663416,2.445567 5.1603818,5.0426532 L 11.0272,12.352201 12.049801,11.291348 c 3.515034,-3.646509 7.600878,-6.8693834 10.805958,-8.5236405 1.729932,-0.892878 2.963744,-1.255472 4.102575,-1.205665 0.573893,0.025116 0.736058,0.062328 1.141878,0.2621123 1.705039,0.8393824 1.799014,3.0113083 0.263011,6.0784858 C 26.8017,11.020771 24.026936,14.61405 20.292586,18.353978 l -1.630707,1.633151 2.912461,2.907431 c 1.601847,1.599085 2.961012,2.998918 3.020361,3.110746 0.05936,0.111829 1.176163,2.652512 2.481806,5.645968 1.868066,4.282913 2.373844,5.506575 2.373629,5.74267 -5.02e-4,0.577382 -0.478587,1.056001 -1.055305,1.056521 -0.234494,2.15e-4 -1.472296,-0.511437 -5.750001,-2.376772 -2.998146,-1.307373 -5.523163,-2.413466 -5.611137,-2.457989 -0.08798,-0.04449 -1.732946,-1.648148 -3.655488,-3.563616 L 9.8826825,26.569421 9.019426,26.993217 c -0.4747921,0.23309 -1.2207446,0.542177 -1.6576737,0.68686 -0.4369235,0.144683 -0.8033085,0.271284 -0.8141831,0.281334 -0.010919,0.01009 0.030688,0.209381 0.092357,0.442954 0.1639978,0.621133 0.1501989,1.870229 -0.028275,2.56059 -0.4832624,1.86917 -1.9617792,3.39289 -3.7592786,3.874213 -0.6127599,0.164084 -0.9228908,0.202469 -2.35745346,0.291786 -1.15220618,0.07173 -1.43924293,0.165957 -1.91541024,0.628727 -0.3802742,0.369571 -0.617659,0.872757 -0.6923486,1.467573 -0.075113,0.598218 -0.2396604,0.907224 -0.5800062,1.089206 -0.2384238,0.12748 -0.7035072,0.168912 -0.9380703,0.08356 z M 26.185889,35.117386 c -0.344103,-0.849796 -2.894601,-6.612669 -2.926595,-6.612669 -0.07682,0 -3.78648,3.740427 -3.747912,3.778995 0.04744,0.04744 6.567627,2.90769 6.649224,2.91684 0.03395,0.0038 0.04535,-0.03363 0.02527,-0.08317 z M -1.9113678,33.410752 C -1.3226765,33.110425 -0.66326869,32.978664 0.63989592,32.900959 1.4812375,32.850792 2.064264,32.779706 2.3411164,32.693538 3.8515901,32.223427 4.8138405,30.616717 4.5214767,29.052892 4.4031752,28.420107 4.1349538,27.902303 3.676488,27.421655 2.5718942,26.263602 0.83283293,26.096916 -0.51320976,27.020075 c -0.98954814,0.678667 -2.04317304,2.409541 -2.47838394,4.071439 -0.1574696,0.601328 -0.2615015,2.276725 -0.1765475,2.843248 l 0.049957,0.333293 0.4714124,-0.361319 c 0.2592738,-0.19872 0.5901958,-0.421916 0.7353822,-0.495984 z M 19.562759,23.986668 c -1.394855,-1.395267 -2.570117,-2.515827 -2.611699,-2.490127 -0.04161,0.02569 -0.367928,0.292114 -0.725215,0.592034 -0.967728,0.812352 -2.408518,1.918216 -3.424411,2.628372 -0.495497,0.346376 -0.915693,0.644299 -0.93377,0.662044 -0.01809,0.01777 1.246631,1.312067 2.810457,2.876273 l 2.843312,2.843997 2.288713,-2.287872 2.288707,-2.287872 z M 6.2382203,25.720081 c 1.1032441,-0.275072 2.5683486,-1.01548 4.4370737,-2.242334 2.467803,-1.620168 4.662304,-3.399132 7.374169,-5.977848 l 0.743484,-0.706987 -2.298651,-2.293489 -2.29865,-2.293494 -1.232893,1.320512 c -2.020727,2.164329 -3.3480609,3.774326 -4.7325645,5.740389 -1.7896445,2.541374 -3.0684582,5.091683 -3.0684582,6.119367 0,0.195657 0.021634,0.377361 0.048033,0.403786 0.083304,0.0833 0.5379099,0.05241 1.0284371,-0.06991 z m 0.045087,-7.52175 c 0.7134288,-1.021338 1.7990419,-2.434388 2.682443,-3.491503 l 0.5989233,-0.716705 -1.2098575,-1.211427 -1.2098518,-1.211427 -2.28881,2.287969 -2.2888141,2.287968 1.4949233,1.496199 c 0.8222053,0.822906 1.5167063,1.488011 1.5433283,1.478014 0.026604,-0.01 0.3315964,-0.423591 0.6777155,-0.919088 z M 20.98745,14.445251 c 0.3536,-0.399314 0.655012,-0.759975 0.669816,-0.801466 0.02876,-0.08062 -4.162105,-4.3103926 -4.270747,-4.3103926 -0.0355,0 -0.274438,0.1864894 -0.530981,0.4144193 -0.256543,0.2279291 -0.60068,0.5339213 -0.764758,0.6799843 l -0.298312,0.265567 2.233819,2.238958 c 1.228597,1.231426 2.252816,2.238958 2.276038,2.238958 0.02324,0 0.331532,-0.326713 0.685125,-0.726028 z M 3.2878588,12.252342 5.557284,9.9820568 4.8188235,9.2435977 4.0803619,8.5051414 1.7929557,10.792548 -0.49445598,13.07996 0.22417277,13.801293 c 0.39524452,0.396731 0.73564396,0.721332 0.75644076,0.721332 0.020831,0 1.05905967,-1.021629 2.30724527,-2.270283 z M 23.77748,11.045119 C 25.4206,8.8464459 26.559756,6.8607149 27.033472,5.3693955 27.226039,4.7631788 27.310684,3.9275396 27.19161,3.8082736 27.069417,3.685881 26.23753,3.7688636 25.630387,3.9640036 24.482712,4.332883 23.14697,5.0315389 21.522244,6.112756 c -0.905312,0.6024577 -2.378396,1.695555 -2.378396,1.7648741 0,0.065195 3.912155,3.9783089 3.97733,3.9783089 0.02769,0 0.32303,-0.364869 0.656302,-0.81082 z M 0.261241,9.2227093 2.5311011,6.9498452 1.1977531,5.6314271 C -0.27749017,4.1726989 -0.63127576,3.934944 -1.5590279,3.7788024 -3.6506535,3.4267896 -5.5737258,5.3498572 -5.2217073,7.441488 c 0.1552903,0.9227086 0.3964232,1.2832512 1.8316878,2.738761 0.7133701,0.723426 1.3160151,1.315324 1.3392161,1.315324 0.023184,0 1.06361639,-1.022789 2.31204188,-2.2728637 z"
     id="path1579" />
</svg>
