<?xml version="1.0" encoding="UTF-8" standalone="no"?>
<svg
   xmlns:dc="http://purl.org/dc/elements/1.1/"
   xmlns:cc="http://creativecommons.org/ns#"
   xmlns:rdf="http://www.w3.org/1999/02/22-rdf-syntax-ns#"
   xmlns:svg="http://www.w3.org/2000/svg"
   xmlns="http://www.w3.org/2000/svg"
   xmlns:sodipodi="http://sodipodi.sourceforge.net/DTD/sodipodi-0.dtd"
   xmlns:inkscape="http://www.inkscape.org/namespaces/inkscape"
   width="40"
   height="40"
   viewBox="0 0 22 40"
   fill="none"
   version="1.1"
   id="svg919"
   sodipodi:docname="icon-web.svg"
   inkscape:version="1.0.1 (3bc2e813f5, 2020-09-07)">
  <metadata
     id="metadata923">
    <rdf:RDF>
      <cc:Work
         rdf:about="">
        <dc:format>image/svg+xml</dc:format>
        <dc:type
           rdf:resource="http://purl.org/dc/dcmitype/StillImage" />
        <dc:title></dc:title>
      </cc:Work>
    </rdf:RDF>
  </metadata>
  <sodipodi:namedview
     pagecolor="#ffffff"
     bordercolor="#666666"
     borderopacity="1"
     objecttolerance="10"
     gridtolerance="10"
     guidetolerance="10"
     inkscape:pageopacity="0"
     inkscape:pageshadow="2"
     inkscape:window-width="1920"
     inkscape:window-height="1009"
     id="namedview921"
     showgrid="false"
     inkscape:zoom="10.469034"
     inkscape:cx="12.762288"
     inkscape:cy="16.710414"
     inkscape:window-x="-8"
     inkscape:window-y="-8"
     inkscape:window-maximized="1"
     inkscape:current-layer="svg919" />
  <defs
     id="defs917">
    <linearGradient
       id="paint0_linear"
       x1="2.12767"
       y1="1"
       x2="30.7018"
       y2="17.5237"
       gradientUnits="userSpaceOnUse">
      <stop
         offset="0.259336"
         stop-color="#FFDB6E"
         id="stop907" />
      <stop
         offset="1"
         stop-color="#FFBC5E"
         id="stop909" />
    </linearGradient>
    <linearGradient
       id="paint1_linear"
       x1="1.59976"
       y1="8.08974e-07"
       x2="31.8368"
       y2="17.6727"
       gradientUnits="userSpaceOnUse">
      <stop
         offset="0.259336"
         stop-color="#FFDB6E"
         id="stop912" />
      <stop
         offset="1"
         stop-color="#FFBC5E"
         id="stop914" />
    </linearGradient>
  </defs>
  <path
     style="fill:#fd6700;stroke-width:0.0796088"
     d="M 9.0493977,37.7221 C 2.4921267,36.981906 -3.1964602,32.62043 -5.5998265,26.490447 c -0.3034478,-0.773961 -0.3051078,-0.776183 -0.5801792,-0.776183 -0.5081589,0 -0.9162745,-0.181137 -1.3414835,-0.595399 -0.2712225,-0.264237 -0.4397108,-0.507642 -0.4971119,-0.718147 -0.057431,-0.210631 -0.08698,-1.708365 -0.087279,-4.424017 -4.653e-4,-4.709843 -0.012746,-4.609885 0.6354849,-5.192697 0.3992625,-0.358972 0.8215562,-0.533422 1.2912465,-0.533422 0.269943,0 0.2821798,-0.01413 0.4996478,-0.577165 C -3.6504579,8.4201759 0.69054215,4.4028454 5.9844525,2.8791388 7.8484819,2.3426315 8.9444929,2.1949806 11.039618,2.1981339 c 1.892559,0.00299 2.901924,0.1249994 4.5269,0.547849 5.472923,1.424148 10.095991,5.5969372 12.1066,10.9274341 0.216727,0.574579 0.219031,0.577165 0.514995,0.577165 0.77077,0 1.60667,0.611876 1.823196,1.334577 0.0678,0.226294 0.09464,1.478781 0.09464,4.416389 0,4.609424 0.0079,4.538831 -0.574427,5.132795 -0.352895,0.35994 -0.85906,0.579921 -1.33439,0.579921 H 27.90886 l -0.342883,0.855793 c -1.687728,4.212361 -4.864324,7.59307 -8.967068,9.543246 -1.709094,0.812395 -3.82904,1.405174 -5.784853,1.617562 -0.905768,0.09836 -2.8558511,0.09382 -3.7646573,-0.0088 z m 1.3135463,-4.726365 v -3.465727 l -0.3781421,0.03978 c -0.207979,0.02188 -0.756949,0.05966 -1.2199348,0.08395 -1.436245,0.07537 -4.611417,0.602492 -4.611417,0.765548 0,0.14358 0.4112371,0.985398 0.8239358,1.686632 1.3142237,2.233056 3.0293487,3.76516 4.748687,4.241954 0.7044371,0.195352 0.6368711,0.550977 0.6368711,-3.352146 z m 1.883652,3.354439 c 1.953106,-0.520023 3.804721,-2.315661 5.214158,-5.056528 0.211985,-0.412235 0.385427,-0.792673 0.385427,-0.845416 0,-0.189474 -3.029934,-0.711489 -4.611416,-0.794484 -0.462987,-0.02429 -1.011958,-0.06208 -1.219936,-0.08395 l -0.378142,-0.03978 v 3.465727 c 0,2.720015 0.02141,3.465528 0.09951,3.464782 0.05473,-4.22e-4 0.284411,-0.05018 0.510399,-0.110343 z M 5.6594669,35.191296 C 4.5886308,34.011113 3.8509975,32.903594 3.1915902,31.485909 3.0083005,31.091843 2.8500603,30.759327 2.8399451,30.746986 c -0.038335,-0.04678 -1.7873296,0.61187 -2.48260485,0.93491 l -0.72585905,0.337248 0.43664418,0.395429 c 1.08091952,0.978884 2.63043212,1.973389 4.09403132,2.627621 0.6664751,0.297917 1.9010585,0.768655 2.0466255,0.780366 0.013912,0.0013 -0.2332743,-0.282949 -0.5493153,-0.631264 z m 11.3560501,0.195226 c 1.874582,-0.726142 3.67308,-1.820334 4.979702,-3.029613 l 0.367618,-0.340233 -0.723204,-0.336016 c -0.689859,-0.320521 -2.442912,-0.980936 -2.478414,-0.933674 -0.0092,0.01236 -0.199436,0.40788 -0.422587,0.878973 -0.628628,1.327102 -1.542858,2.659629 -2.601231,3.791395 -0.464085,0.496267 -0.484489,0.496986 0.878116,-0.03081 z M -0.53710637,30.677907 c 0.76969674,-0.379917 2.49142717,-1.06281 2.67958997,-1.06281 0.2013737,0 0.1904183,-0.229516 -0.046226,-0.968418 C 1.843038,27.856012 1.5981522,26.921592 1.447716,26.172012 L 1.355851,25.714264 h -2.9387231 -2.9387232 l 0.1608309,0.417945 c 0.3056001,0.794157 1.0265282,2.172106 1.5426595,2.948565 0.4393226,0.66091 1.4419902,1.967286 1.5099275,1.967286 0.011638,0 0.35861861,-0.166569 0.77107259,-0.370153 z M 23.814369,30.454024 c 0.987058,-1.207959 2.027226,-2.973612 2.546028,-4.321815 l 0.16083,-0.417945 h -2.938723 -2.938723 l -0.09186,0.457748 c -0.150436,0.74958 -0.395322,1.684 -0.648541,2.474667 -0.241558,0.754248 -0.248323,0.968418 -0.03059,0.968418 0.177848,0 2.057989,0.756825 2.749931,1.106952 0.328387,0.166163 0.621634,0.307491 0.65166,0.314063 0.03003,0.0066 0.273024,-0.25537 0.539994,-0.582088 z M 5.0562892,28.863456 c 1.4269517,-0.286211 2.8949673,-0.474364 4.4110547,-0.565358 l 0.8956001,-0.05375 v -1.265043 -1.26504 H 6.5093657 c -3.628875,0 -3.8517624,0.0081 -3.8224139,0.139313 0.3028187,1.353681 0.8687583,3.283867 0.9628426,3.283867 0.022265,0 0.6551864,-0.123294 1.4064948,-0.273988 z m 13.5767478,-0.46609 c 0.193107,-0.602844 0.514777,-1.806795 0.679641,-2.543789 0.02935,-0.131191 -0.193538,-0.139313 -3.822413,-0.139313 h -3.853578 v 1.264231 1.264232 l 0.855795,0.05235 c 1.549956,0.09481 3.13357,0.29752 4.392333,0.562236 0.681999,0.143422 1.301008,0.265125 1.375574,0.270449 0.10344,0.0074 0.191778,-0.165757 0.372648,-0.730396 z m 9.831806,-4.04678 c 0.108562,-0.04946 0.236612,-0.184636 0.284554,-0.30038 0.06024,-0.145441 0.08035,-1.447598 0.06509,-4.216018 l -0.02208,-4.005581 -0.18794,-0.152142 C 28.420719,15.527718 28.027688,15.524324 10.987379,15.524324 H -6.4417701 l -0.1954031,0.195403 -0.1954042,0.195404 v 3.980315 c 0,2.755714 0.027285,4.040209 0.088695,4.174978 0.048779,0.107059 0.1652079,0.231703 0.2587286,0.276989 0.2517117,0.121876 34.6826048,0.125004 34.9500008,0.003 z M -0.22085822,23.026951 c -0.13906182,-0.112604 -0.30307207,-0.658874 -0.84252548,-2.806213 -0.3684188,-1.466513 -0.6708348,-2.748622 -0.6720381,-2.849125 -0.00308,-0.258689 0.338499,-0.573547 0.6222462,-0.573547 0.47140053,0 0.54537389,0.147548 1.01725509,2.029026 0.24137975,0.96242 0.45158916,1.762576 0.46713236,1.778117 0.01554,0.01553 0.2998947,-0.508015 0.63189125,-1.163461 0.5005765,-0.988267 0.644339,-1.208586 0.8420737,-1.290489 0.1906929,-0.07899 0.2873621,-0.0785 0.4827422,0.0025 0.2058026,0.08525 0.3382802,0.288839 0.8406535,1.29191 0.3279936,0.654896 0.6097089,1.17736 0.6260326,1.161037 0.016321,-0.01634 0.2271728,-0.817119 0.4685515,-1.779539 0.4718832,-1.881478 0.5458566,-2.029027 1.0172561,-2.029027 0.2837482,0 0.6253427,0.314859 0.6222462,0.573547 -0.00116,0.100504 -0.3036193,1.382612 -0.6720371,2.849125 -0.714922,2.845803 -0.7566864,2.94604 -1.2274953,2.94604 -0.1167619,0 -0.2829572,-0.05008 -0.3693234,-0.111279 C 3.5474398,22.99437 3.1731113,22.331632 2.8019699,21.582814 2.4308275,20.833995 2.1075693,20.22133 2.0836181,20.22133 c -0.023951,0 -0.3472095,0.612665 -0.7183519,1.361484 -0.37114235,0.748818 -0.74546705,1.411561 -0.83183315,1.472764 -0.2148234,0.152234 -0.54654059,0.139681 -0.75429127,-0.02853 z m 8.91619732,0 C 8.5562763,22.914347 8.3922671,22.368077 7.8528136,20.220738 7.4843949,18.754225 7.1819779,17.472116 7.1807755,17.371613 c -0.00308,-0.258689 0.338499,-0.573547 0.6222463,-0.573547 0.4713995,0 0.5453728,0.147548 1.017256,2.029026 0.2413788,0.96242 0.4515882,1.762576 0.4671311,1.778117 0.01555,0.01553 0.299895,-0.508015 0.631892,-1.163461 0.5005751,-0.988267 0.6443401,-1.208586 0.8420731,-1.290489 0.190693,-0.07899 0.287363,-0.0785 0.482743,0.0025 0.205803,0.08525 0.33828,0.288839 0.840653,1.29191 0.327994,0.654896 0.609708,1.17736 0.626032,1.161037 0.01632,-0.01634 0.227173,-0.817119 0.468552,-1.779539 0.471882,-1.881478 0.545856,-2.029027 1.017255,-2.029027 0.283749,0 0.625343,0.314859 0.622247,0.573547 -0.0012,0.100504 -0.30362,1.382612 -0.672038,2.849125 -0.714921,2.845803 -0.756686,2.94604 -1.227495,2.94604 -0.116762,0 -0.282957,-0.05008 -0.369322,-0.111279 -0.08636,-0.06121 -0.460691,-0.723946 -0.831833,-1.472764 -0.371143,-0.748814 -0.694401,-1.361479 -0.718352,-1.361479 -0.02395,0 -0.34721,0.612665 -0.718352,1.361484 -0.3711431,0.748818 -0.7454671,1.411561 -0.8318341,1.472764 -0.2148238,0.152234 -0.5465401,0.139681 -0.7542908,-0.02853 z m 8.9161969,0 c -0.139062,-0.112604 -0.303072,-0.658874 -0.842527,-2.806213 -0.368417,-1.466513 -0.670834,-2.748622 -0.672037,-2.849125 -0.0031,-0.258689 0.338498,-0.573547 0.622246,-0.573547 0.471401,0 0.545373,0.147548 1.017256,2.029026 0.241379,0.96242 0.45159,1.762576 0.467132,1.778117 0.01554,0.01553 0.299895,-0.508015 0.631891,-1.163461 0.500577,-0.988267 0.64434,-1.208586 0.842074,-1.290489 0.190693,-0.07899 0.287362,-0.0785 0.482742,0.0025 0.205803,0.08525 0.338279,0.288839 0.840654,1.29191 0.327993,0.654896 0.609707,1.17736 0.626031,1.161037 0.01632,-0.01634 0.227173,-0.817119 0.468552,-1.779539 0.471883,-1.881478 0.545856,-2.029027 1.017256,-2.029027 0.283747,0 0.625342,0.314859 0.622246,0.573547 -0.0012,0.100504 -0.303619,1.382612 -0.672037,2.849125 -0.714922,2.845803 -0.756687,2.94604 -1.227495,2.94604 -0.116762,0 -0.282958,-0.05008 -0.369323,-0.111279 -0.08636,-0.06121 -0.460692,-0.723946 -0.831834,-1.472764 -0.371142,-0.748819 -0.6944,-1.361484 -0.718351,-1.361484 -0.02395,0 -0.347209,0.612665 -0.718352,1.361484 -0.371141,0.748818 -0.745467,1.411561 -0.831833,1.472764 -0.214823,0.152234 -0.546541,0.139681 -0.754291,-0.02853 z M 1.4464914,13.79283 c 0.1342764,-0.678123 0.523865,-2.129239 0.7458515,-2.778117 L 2.3869927,10.445749 1.5387279,10.149775 C 1.0721812,9.9869891 0.24582619,9.6426651 -0.29761594,9.3846024 -1.4574947,8.8338207 -1.283215,8.7795498 -2.1819297,9.9713803 -3.0680695,11.146536 -4.0201783,12.842844 -4.4035988,13.92957 l -0.1132589,0.321012 h 2.9363542 2.936353 z m 8.9164526,-0.815989 c 0,-1.267753 -8.46e-4,-1.273746 -0.17912,-1.274068 C 8.9909117,11.700654 6.1197772,11.344305 4.6095395,11.010998 4.0941519,10.897252 3.6529824,10.823673 3.6291632,10.847493 3.5117904,10.964866 3.0107804,12.662143 2.6892458,14.031656 l -0.0514,0.218926 h 3.862549 3.8625482 z m 8.82928,0.577162 c -0.222195,-1.026565 -0.777896,-2.726605 -0.891261,-2.726605 -0.05369,0 -0.491441,0.08807 -0.972778,0.195708 -1.428059,0.31935 -4.333092,0.677534 -5.512378,0.679667 -0.178277,3.18e-4 -0.17912,0.0063 -0.17912,1.274068 v 1.273741 h 3.853155 3.853154 z m 7.164855,0.280129 C 25.830646,12.498562 25.073546,11.154289 24.18156,9.9713803 23.282677,8.7793263 23.457075,8.8333929 22.297246,9.3872017 21.753803,9.6466943 20.927295,9.9905692 20.46056,10.15137 l -0.848607,0.292369 0.194992,0.569971 c 0.222283,0.649746 0.611838,2.100608 0.746194,2.77912 l 0.09064,0.457752 h 2.938723 2.938723 z M 10.362944,6.9663643 c 0,-3.9352112 0.07858,-3.5722658 -0.7219331,-3.3346194 C 7.7606388,4.1899634 5.9147521,5.990075 4.5826391,8.5646696 4.3465853,9.0208949 4.1534501,9.4432955 4.1534501,9.5033393 c 0,0.1101912 0.816341,0.3087516 2.3086586,0.5615357 0.6864781,0.116282 2.6642731,0.309048 3.6023023,0.351096 l 0.298533,0.01337 z m 3.542597,3.2974437 c 1.720803,-0.154392 3.94064,-0.5816011 3.94064,-0.758378 0,-0.1888604 -0.75626,-1.5884483 -1.292793,-2.3925314 C 15.368478,5.3371093 13.845368,4.07311 12.35862,3.6317449 11.558072,3.394086 11.636687,3.0301839 11.636687,6.9735131 v 3.4701329 l 0.696578,-0.05064 c 0.383117,-0.02784 1.090642,-0.08599 1.572276,-0.129203 z M 3.2887383,8.2955272 C 3.8479434,7.1296838 4.6502209,5.9259991 5.5409621,4.9164352 5.9176202,4.4895353 6.2101724,4.1402506 6.1910769,4.1402506 6.021077,4.1402506 4.5467594,4.7305037 3.7156016,5.1313192 2.5095449,5.712934 1.4544977,6.3925679 0.37301545,7.2845288 L -0.39884421,7.9211293 0.30954365,8.2628838 C 0.88273415,8.5394206 2.6380868,9.2204331 2.8000979,9.229135 2.8219874,9.2303875 3.0418785,8.8101874 3.2887383,8.2955272 Z M 19.876207,9.0045462 C 20.688062,8.7114959 21.170584,8.5157449 21.864615,8.197881 L 22.420062,7.943488 22.18305,7.7465443 C 20.174796,6.0777678 18.736666,5.2002971 16.890875,4.5175398 15.656217,4.0608405 15.68106,4.0427518 16.410676,4.8671839 c 0.925853,1.0461777 1.682265,2.1690726 2.256744,3.3501482 0.270769,0.556674 0.51022,1.0132548 0.532112,1.0146219 0.02189,0.00125 0.326397,-0.1009691 0.676675,-0.2274078 z"
     id="path1515" />
</svg>
