<?xml version="1.0" encoding="UTF-8" standalone="no"?>
<svg
   xmlns:dc="http://purl.org/dc/elements/1.1/"
   xmlns:cc="http://creativecommons.org/ns#"
   xmlns:rdf="http://www.w3.org/1999/02/22-rdf-syntax-ns#"
   xmlns:svg="http://www.w3.org/2000/svg"
   xmlns="http://www.w3.org/2000/svg"
   xmlns:sodipodi="http://sodipodi.sourceforge.net/DTD/sodipodi-0.dtd"
   xmlns:inkscape="http://www.inkscape.org/namespaces/inkscape"
   width="40"
   height="40"
   viewBox="0 0 22 40"
   fill="none"
   version="1.1"
   id="svg919"
   sodipodi:docname="icon-code.svg"
   inkscape:version="1.0.1 (3bc2e813f5, 2020-09-07)">
  <metadata
     id="metadata923">
    <rdf:RDF>
      <cc:Work
         rdf:about="">
        <dc:format>image/svg+xml</dc:format>
        <dc:type
           rdf:resource="http://purl.org/dc/dcmitype/StillImage" />
        <dc:title></dc:title>
      </cc:Work>
    </rdf:RDF>
  </metadata>
  <sodipodi:namedview
     pagecolor="#ffffff"
     bordercolor="#666666"
     borderopacity="1"
     objecttolerance="10"
     gridtolerance="10"
     guidetolerance="10"
     inkscape:pageopacity="0"
     inkscape:pageshadow="2"
     inkscape:window-width="1920"
     inkscape:window-height="1009"
     id="namedview921"
     showgrid="false"
     inkscape:zoom="11.313709"
     inkscape:cx="20.814866"
     inkscape:cy="4.4327457"
     inkscape:window-x="-8"
     inkscape:window-y="-8"
     inkscape:window-maximized="1"
     inkscape:current-layer="svg919" />
  <defs
     id="defs917">
    <linearGradient
       id="paint0_linear"
       x1="2.12767"
       y1="1"
       x2="30.7018"
       y2="17.5237"
       gradientUnits="userSpaceOnUse">
      <stop
         offset="0.259336"
         stop-color="#FFDB6E"
         id="stop907" />
      <stop
         offset="1"
         stop-color="#FFBC5E"
         id="stop909" />
    </linearGradient>
    <linearGradient
       id="paint1_linear"
       x1="1.59976"
       y1="8.08974e-07"
       x2="31.8368"
       y2="17.6727"
       gradientUnits="userSpaceOnUse">
      <stop
         offset="0.259336"
         stop-color="#FFDB6E"
         id="stop912" />
      <stop
         offset="1"
         stop-color="#FFBC5E"
         id="stop914" />
    </linearGradient>
  </defs>
  <path
     style="fill:#fd6700;stroke-width:0.0246662"
     d="M 6.6254428,32.040146 C 6.3289907,31.960233 6.0698919,31.808648 5.8444654,31.583241 5.6179002,31.356643 5.488033,31.149046 5.3969919,30.867923 5.3194422,30.628355 5.29437,30.274295 5.3374505,30.026551 c 0.016737,-0.09555 0.1898804,-0.601828 0.3958607,-1.156588 0.5935733,-1.598604 0.7530297,-2.02761 0.8893901,-2.392618 0.070958,-0.189931 0.1597902,-0.428576 0.1973783,-0.530324 0.3131208,-0.847715 0.4257167,-1.151246 0.6954925,-1.87463 0.1694962,-0.454476 0.5992306,-1.608852 0.9550268,-2.565284 0.3557631,-0.956429 0.7668193,-2.06086 0.9133889,-2.454284 0.5294092,-1.420707 0.5998322,-1.6103 0.7649782,-2.059624 0.09229,-0.250979 0.374975,-1.011315 0.628249,-1.689634 0.253241,-0.678322 0.643681,-1.727252 0.867601,-2.330957 0.223955,-0.603706 0.527502,-1.419537 0.674573,-1.812964 0.147105,-0.393424 0.390874,-1.047654 0.541762,-1.4538398 0.300033,-0.8077507 0.362858,-0.9426489 0.542596,-1.1647694 0.491086,-0.6069214 1.421612,-0.8051402 2.133807,-0.4545344 0.542966,0.2673046 0.903046,0.7790691 0.978155,1.3902617 0.0492,0.4005138 0.02075,0.5057098 -0.546581,2.0282089 -0.273056,0.732585 -0.552036,1.481822 -0.619949,1.664969 -0.450618,1.215071 -0.817093,2.201929 -0.975511,2.626946 -0.101115,0.271329 -0.253709,0.682021 -0.339094,0.912649 -0.08535,0.230629 -0.318843,0.857768 -0.518866,1.39364 -0.458987,1.229723 -0.9809,2.632379 -1.296463,3.484162 -0.134453,0.362935 -0.282496,0.762528 -0.328987,0.887984 -0.107976,0.291338 -0.924033,2.483079 -1.384491,3.718361 -0.341371,0.915798 -1.1461799,3.080757 -1.5817367,4.254917 -0.1157435,0.312027 -0.2500956,0.643041 -0.298528,0.735588 -0.1866337,0.356646 -0.5774078,0.682044 -0.9891668,0.823666 -0.2613412,0.0899 -0.7404113,0.105203 -1.0108888,0.0323 z M 1.3922265,29.211644 C 0.85675836,29.131224 0.62959106,29.012099 0.14573509,28.558063 -0.00398036,28.417582 -0.54764901,27.9086 -1.0624661,27.426993 c -0.5147829,-0.481607 -1.019424,-0.953932 -1.1214438,-1.049609 -0.1019862,-0.09568 -0.2575923,-0.239976 -0.3457545,-0.320662 -0.088163,-0.08069 -0.1658822,-0.152342 -0.1726772,-0.159238 -0.015059,-0.01523 -0.403157,-0.380728 -0.6906731,-0.65035 -0.1153075,-0.108144 -0.2873475,-0.27014 -0.3823049,-0.359994 -0.094991,-0.08985 -0.4335159,-0.406333 -0.7523265,-0.703294 -0.3188107,-0.296958 -0.679561,-0.634147 -0.8016627,-0.749304 -0.1221017,-0.115157 -0.299699,-0.281933 -0.3946555,-0.370618 -0.094957,-0.08868 -0.2559195,-0.239373 -0.357671,-0.33487 -0.1017181,-0.09549 -0.3400979,-0.31793 -0.5296777,-0.494292 -0.1895796,-0.176365 -0.4393396,-0.410226 -0.554982,-0.519693 -0.115675,-0.109467 -0.3878947,-0.363934 -0.6049537,-0.565482 -0.7479419,-0.694495 -0.8825613,-0.841452 -1.0084456,-1.10101 -0.1414155,-0.291488 -0.1870359,-0.486366 -0.1875044,-0.800645 0,-0.310951 0.058874,-0.555491 0.2016959,-0.831167 0.1344858,-0.259594 0.238246,-0.363853 1.9932278,-2.002604 2.6168263,-2.443506 4.4207091,-4.131416 4.4526407,-4.166414 0.013722,-0.0151 0.091509,-0.08771 0.1726764,-0.161364 0.081168,-0.07365 0.2252932,-0.207134 0.3202497,-0.296639 0.2202728,-0.207606 0.5628144,-0.529068 0.8159886,-0.765764 0.35067456,-0.327831 0.55963403,-0.523542 0.91141361,-0.853573 0.18951291,-0.1777871 0.4011491,-0.3729761 0.4703,-0.4337533 C 1.1636534,9.0400132 2.3568256,9.1672235 2.9844396,10.015283 c 0.4662836,0.63006 0.4363605,1.559173 -0.069556,2.161182 -0.070958,0.08442 -0.5119716,0.510652 -0.9799958,0.947163 -0.4680575,0.436512 -0.9231288,0.861842 -1.01132454,0.94518 -0.088163,0.08334 -0.50440737,0.472399 -0.92497044,0.864581 -0.42056218,0.392182 -0.84236293,0.786364 -0.93732027,0.875959 -0.37310025,0.352004 -0.81100085,0.762344 -1.18440255,1.10985 -0.2882186,0.268239 -0.8982261,0.838621 -1.1337945,1.060165 -0.1223364,0.11505 -0.2890221,0.271249 -0.3704234,0.347104 -0.081404,0.07585 -0.3349774,0.314015 -0.5634835,0.529239 l -0.4155084,0.391315 0.1811785,0.175077 c 0.1728443,0.167027 0.4054337,0.386396 0.8115697,0.76537 0.6015738,0.561362 0.923564,0.86258 1.1206077,1.048313 0.1223364,0.115314 0.3777865,0.354797 0.5676669,0.532181 0.1899147,0.177387 0.622526,0.582526 0.96138621,0.900316 0.33886004,0.317787 0.6995761,0.65512 0.80162922,0.749628 0.10205303,0.09451 0.2799176,0.261013 0.39522515,0.370014 0.11530746,0.109006 0.35931038,0.336923 0.54219538,0.50649 0.1828857,0.169567 0.42153354,0.393398 0.53031404,0.497402 0.1087805,0.104007 0.222046,0.210143 0.2517352,0.235863 0.054726,0.04747 0.5261297,0.488582 0.9885305,0.92503 0.4264202,0.402525 0.5652574,0.594233 0.6907734,0.953922 0.058539,0.167723 0.065433,0.223589 0.06597,0.532699 0,0.39621 -0.027445,0.519082 -0.1923242,0.838649 -0.1171148,0.227017 -0.3651008,0.503534 -0.5794154,0.646063 -0.3038157,0.202074 -0.827368,0.334331 -1.1384807,0.287606 z m 18.8943165,0.0013 c -0.293942,-0.05088 -0.378222,-0.07217 -0.519738,-0.131256 -0.463237,-0.193402 -0.835066,-0.594849 -1.001015,-1.0807 -0.08826,-0.25846 -0.10771,-0.655576 -0.04576,-0.935527 0.07946,-0.359073 0.275432,-0.699903 0.538949,-0.937354 0.07297,-0.06574 0.392314,-0.362985 0.709618,-0.660539 0.317305,-0.297553 0.726453,-0.680497 0.909239,-0.850985 0.182751,-0.170487 0.432544,-0.404322 0.555082,-0.51964 0.122537,-0.115314 0.383342,-0.359508 0.579549,-0.542653 0.196207,-0.183147 0.4459,-0.41724 0.554881,-0.520206 0.108949,-0.10297 0.558864,-0.523597 0.999777,-0.934727 0.440913,-0.411134 0.879349,-0.821116 0.974307,-0.911076 0.244036,-0.231167 0.925136,-0.869281 1.33164,-1.247589 0.189514,-0.176361 0.431508,-0.404078 0.537812,-0.506037 l 0.193295,-0.185379 -0.205044,-0.195624 c -0.395693,-0.377513 -1.040846,-0.981245 -3.003112,-2.810318 -0.333238,-0.310614 -0.69469,-0.649454 -0.803204,-0.75297 -0.108545,-0.103519 -0.447071,-0.420659 -0.752326,-0.704757 -0.305255,-0.284094 -0.632701,-0.589701 -0.727659,-0.679119 -0.09496,-0.08942 -0.278109,-0.261736 -0.406973,-0.382921 -0.128896,-0.121188 -0.239886,-0.226407 -0.24668,-0.233825 -0.0067,-0.0074 -0.09556,-0.09002 -0.197312,-0.18356 -1.009484,-0.928053 -1.20549,-1.126974 -1.345297,-1.365207 -0.179773,-0.306383 -0.220407,-0.470963 -0.220339,-0.892439 0,-0.328247 0.0057,-0.373887 0.06915,-0.554992 0.098,-0.279884 0.256254,-0.5201451 0.483254,-0.7337131 0.485931,-0.4571126 1.170144,-0.5961841 1.800837,-0.3660174 0.309272,0.112867 0.457648,0.218465 0.902008,0.6418155 0.172443,0.164271 0.60964,0.573865 1.184905,1.110096 0.184024,0.171519 0.373804,0.349099 1.68871,1.58017 0.454468,0.425494 0.975913,0.913115 1.15873,1.083603 0.182852,0.170486 0.427024,0.399441 0.542665,0.508784 0.115642,0.109346 0.382272,0.358474 0.592571,0.553623 0.210263,0.195147 0.476658,0.444334 0.591999,0.55375 0.310778,0.2949 0.92072,0.868294 1.00202,0.942016 0.03902,0.03536 0.137533,0.127013 0.218934,0.203657 0.0814,0.07664 0.472676,0.442347 0.869508,0.812669 0.72749,0.678864 0.882663,0.851658 1.005066,1.118974 0.191353,0.418001 0.213009,0.922215 0.05804,1.351392 -0.143591,0.397736 -0.29083,0.560341 -1.574943,1.739449 -0.101751,0.09343 -0.357034,0.332038 -0.567333,0.530251 -0.210264,0.198208 -0.57657,0.542105 -0.813979,0.764214 -0.237409,0.22211 -0.592603,0.555179 -0.789311,0.740153 -0.196709,0.184978 -0.712865,0.667631 -1.146983,1.072567 -0.434118,0.404938 -1.061263,0.991644 -1.39363,1.303794 -0.3324,0.312149 -0.743088,0.696852 -0.912652,0.854891 -0.169598,0.15804 -0.59749,0.558433 -0.950944,0.889761 -1.217973,1.141825 -1.275342,1.190315 -1.565,1.322367 -0.21793,0.09935 -0.674005,0.173909 -0.863316,0.141134 z"
     id="path2170" />
</svg>
