<?xml version="1.0" encoding="UTF-8" standalone="no"?>
<svg
   xmlns:dc="http://purl.org/dc/elements/1.1/"
   xmlns:cc="http://creativecommons.org/ns#"
   xmlns:rdf="http://www.w3.org/1999/02/22-rdf-syntax-ns#"
   xmlns:svg="http://www.w3.org/2000/svg"
   xmlns="http://www.w3.org/2000/svg"
   xmlns:sodipodi="http://sodipodi.sourceforge.net/DTD/sodipodi-0.dtd"
   xmlns:inkscape="http://www.inkscape.org/namespaces/inkscape"
   width="40"
   height="40"
   viewBox="0 0 22 40"
   fill="none"
   version="1.1"
   id="svg919"
   sodipodi:docname="icon-models.svg"
   inkscape:version="1.0.1 (3bc2e813f5, 2020-09-07)">
  <metadata
     id="metadata923">
    <rdf:RDF>
      <cc:Work
         rdf:about="">
        <dc:format>image/svg+xml</dc:format>
        <dc:type
           rdf:resource="http://purl.org/dc/dcmitype/StillImage" />
        <dc:title />
      </cc:Work>
    </rdf:RDF>
  </metadata>
  <sodipodi:namedview
     pagecolor="#ffffff"
     bordercolor="#666666"
     borderopacity="1"
     objecttolerance="10"
     gridtolerance="10"
     guidetolerance="10"
     inkscape:pageopacity="0"
     inkscape:pageshadow="2"
     inkscape:window-width="1920"
     inkscape:window-height="1009"
     id="namedview921"
     showgrid="false"
     inkscape:zoom="7.2092447"
     inkscape:cx="42.468095"
     inkscape:cy="11.766402"
     inkscape:window-x="-8"
     inkscape:window-y="-8"
     inkscape:window-maximized="1"
     inkscape:current-layer="svg919"
     inkscape:document-rotation="0" />
  <defs
     id="defs917">
    <linearGradient
       id="paint0_linear"
       x1="2.12767"
       y1="1"
       x2="30.7018"
       y2="17.5237"
       gradientUnits="userSpaceOnUse">
      <stop
         offset="0.259336"
         stop-color="#FFDB6E"
         id="stop907" />
      <stop
         offset="1"
         stop-color="#FFBC5E"
         id="stop909" />
    </linearGradient>
    <linearGradient
       id="paint1_linear"
       x1="1.59976"
       y1="8.08974e-07"
       x2="31.8368"
       y2="17.6727"
       gradientUnits="userSpaceOnUse">
      <stop
         offset="0.259336"
         stop-color="#FFDB6E"
         id="stop912" />
      <stop
         offset="1"
         stop-color="#FFBC5E"
         id="stop914" />
    </linearGradient>
  </defs>
  <path
     style="fill:#fd6700;stroke-width:0.0750289"
     d="m -7.6641487,35.525012 c -0.6842911,-0.417219 -0.7281611,-1.488402 -0.077928,-1.902827 0.094818,-0.06044 1.7297936,-0.770124 3.6332728,-1.577095 1.903484,-0.806971 3.54943388,-1.507566 3.65767008,-1.556883 l 0.1967987,-0.08967 2.9966e-4,-5.858987 c 3.0063e-4,-5.678687 0.004779,-5.866382 0.14674304,-6.099192 0.08055248,-0.132116 0.25768082,-0.297897 0.39362246,-0.368409 0.13591983,-0.07052 2.34045436,-0.826215 4.89894746,-1.679345 l 4.6518088,-1.551146 0.037527,-4.8705881 c 0.035091,-4.5541364 0.046454,-4.8852134 0.1751497,-5.0956767 0.211793,-0.3463661 0.487131,-0.51189 0.907546,-0.5455894 0.423226,-0.033919 0.753232,0.1335645 1.048737,0.5322798 0.154531,0.208501 0.157538,0.2873427 0.194474,5.0956753 l 0.03753,4.8839021 4.65181,1.551146 c 2.558492,0.85313 4.761217,1.6079 4.894942,1.677263 0.537711,0.278923 0.502965,-0.133049 0.544672,6.458181 l 0.03753,5.929196 3.563882,1.513047 c 1.96014,0.832177 3.656033,1.565202 3.768653,1.628941 0.689145,0.390044 0.668888,1.496448 -0.03526,1.925774 -0.496303,0.302599 -0.602662,0.269335 -4.679056,-1.46347 -2.08717,-0.887224 -3.812294,-1.61313 -3.833603,-1.61313 -0.02129,0 -2.251948,0.725906 -4.956966,1.61313 -2.705018,0.887217 -5.027074,1.613124 -5.16012,1.613124 -0.133047,0 -2.4539022,-0.725907 -5.1574566,-1.613124 -2.7035552,-0.887224 -4.95083663,-1.61313 -4.99395753,-1.61313 -0.0431424,0 -1.78457317,0.725906 -3.86990097,1.61313 -4.0740786,1.733349 -4.1802161,1.766557 -4.6773167,1.46347 z M 9.8188816,23.212995 C 9.7876267,23.183878 8.0148184,22.586866 5.8792988,21.886323 l -3.8827565,-1.273711 0.00127,4.886248 0.00127,4.886254 3.9187727,1.279562 3.9187783,1.279566 0.019279,-4.839148 c 0.010633,-2.661532 -0.00623,-4.862975 -0.037528,-4.892099 z m 9.6020544,7.378221 0.655375,-0.206102 0.0013,-4.88668 0.0013,-4.886679 -3.920276,1.288405 -3.920274,1.288403 -0.01928,4.883971 -0.01928,4.883971 3.283066,-1.079594 c 1.805688,-0.593773 3.577983,-1.172336 3.938442,-1.285695 z M 17.283731,19.122403 c 0.09285,-0.02499 0.168815,-0.06735 0.168815,-0.09414 0,-0.02677 -1.443231,-0.529468 -3.207181,-1.117085 l -3.207182,-1.068409 -3.2078134,1.068297 c -1.7642935,0.587565 -3.2078076,1.087526 -3.2078076,1.111022 0,0.02351 1.4432179,0.515181 3.2071503,1.09262 l 3.2071527,1.04989 3.039025,-0.99838 c 1.671464,-0.549106 3.11499,-1.018829 3.207841,-1.043822 z"
     id="path1546" />
</svg>
